# xmcd CD database file
#
# Track frame offsets:
#	225
#	12955
#	25400
#	39840
#	56393
#	77104
#	87906
#	100317
#	109567
#	123326
#	137440
#	152482
#	168604
#	182329
#	199245
#	219975
#	240530
#
# Disc length: 3280 seconds
#
# Revision: 1
# Processed by: cddbd v1.4PL0 Copyright (c) Steve Scherf et al.
# Submitted via: CDex 1.50
#
DISCID=cf0ccd11
DTITLE=WABI DANEK - Master serie
DYEAR=2000
DGENRE=Country
TTITLE0=Stromy
TTITLE1=Rosa na kolejich
TTITLE2=Pisen, co mne ucil listopad
TTITLE3=Franta ma pera
TTITLE4=Las palmas
TTITLE5=Shantytown
TTITLE6=Kluci to taky nemaj lehky     (Antiptacata)
TTITLE7=Fram
TTITLE8=Outsider waltz
TTITLE9=Na ceste
TTITLE10=Vitr
TTITLE11=Divce v mercedesu
TTITLE12=vikend
TTITLE13=Ranni dest
TTITLE14=Fotky
TTITLE15=Nevadi
TTITLE16=Pisen proti
EXTD=YEAR: 2000
EXTT0=
EXTT1=
EXTT2=
EXTT3=
EXTT4=
EXTT5=
EXTT6=
EXTT7=
EXTT8=
EXTT9=
EXTT10=
EXTT11=
EXTT12=
EXTT13=
EXTT14=
EXTT15=
EXTT16=
PLAYORDER=
